<svg width="132" height="36" viewBox="0 0 132 36" fill="none" xmlns="http://www.w3.org/2000/svg">
<path fill-rule="evenodd" clip-rule="evenodd" d="M0 18C0 8.05888 8.05888 0 18 0C27.9411 0 36 8.05888 36 18C36 27.9411 27.9411 36 18 36C8.05888 36 0 27.9411 0 18Z" fill="#3B5998"/>
<path fill-rule="evenodd" clip-rule="evenodd" d="M19.8762 28.5836V18.7907H22.5795L22.9377 15.416H19.8762L19.8808 13.7269C19.8808 12.8467 19.9644 12.3751 21.2286 12.3751H22.9186V9H20.2149C16.9674 9 15.8244 10.6371 15.8244 13.3902V15.4163H13.8V18.791H15.8244V28.5836H19.8762Z" fill="white"/>
<path fill-rule="evenodd" clip-rule="evenodd" d="M48 18C48 8.05888 56.0589 0 66 0C75.9411 0 84 8.05888 84 18C84 27.9411 75.9411 36 66 36C56.0589 36 48 27.9411 48 18Z" fill="#4C6C91"/>
<path fill-rule="evenodd" clip-rule="evenodd" d="M66.9415 23.9071C66.9415 23.9071 67.288 23.8693 67.4655 23.6821C67.628 23.5107 67.6223 23.1871 67.6223 23.1871C67.6223 23.1871 67.6007 21.6763 68.3154 21.4532C69.0197 21.2339 69.924 22.9143 70.8837 23.5605C71.6087 24.049 72.159 23.9421 72.159 23.9421L74.7236 23.9071C74.7236 23.9071 76.0646 23.8259 75.4288 22.7908C75.3763 22.706 75.0579 22.0248 73.5225 20.6255C71.9139 19.1608 72.1299 19.3977 74.0662 16.8637C75.2457 15.3206 75.7171 14.3785 75.5697 13.9757C75.4298 13.5904 74.5621 13.6927 74.5621 13.6927L71.6754 13.7102C71.6754 13.7102 71.4613 13.6816 71.3026 13.7747C71.1476 13.866 71.0471 14.0789 71.0471 14.0789C71.0471 14.0789 70.5907 15.2726 69.9813 16.2885C68.6957 18.4307 68.182 18.5441 67.9717 18.4113C67.4824 18.1007 67.6045 17.1651 67.6045 16.5005C67.6045 14.4237 67.9256 13.5581 66.98 13.3341C66.6664 13.2595 66.4353 13.2106 65.6324 13.2023C64.6023 13.1922 63.7308 13.206 63.2369 13.4429C62.9082 13.6005 62.6546 13.9526 62.8096 13.9729C63.0002 13.9978 63.4322 14.0872 63.6613 14.3933C63.9571 14.7887 63.9468 15.6755 63.9468 15.6755C63.9468 15.6755 64.1168 18.1201 63.5496 18.4233C63.1608 18.6316 62.6274 18.2067 61.4808 16.2626C60.8939 15.2671 60.4506 14.1665 60.4506 14.1665C60.4506 14.1665 60.3652 13.9609 60.2121 13.8503C60.0271 13.7167 59.7689 13.6752 59.7689 13.6752L57.0258 13.6927C57.0258 13.6927 56.6136 13.7038 56.4624 13.8798C56.3281 14.0356 56.4521 14.3592 56.4521 14.3592C56.4521 14.3592 58.5997 19.2917 61.0319 21.7777C63.2622 24.0564 65.794 23.9071 65.794 23.9071H66.9415Z" fill="white"/>
<mask id="mask0_1018_1587" style="mask-type:luminance" maskUnits="userSpaceOnUse" x="96" y="0" width="36" height="36">
<path fill-rule="evenodd" clip-rule="evenodd" d="M96 18C96 8.05888 104.059 0 114 0C123.941 0 132 8.05888 132 18C132 27.9411 123.941 36 114 36C104.059 36 96 27.9411 96 18Z" fill="white"/>
</mask>
<g mask="url(#mask0_1018_1587)">
<path fill-rule="evenodd" clip-rule="evenodd" d="M96 18C96 8.05888 104.059 0 114 0C123.941 0 132 8.05888 132 18C132 27.9411 123.941 36 114 36C104.059 36 96 27.9411 96 18Z" fill="url(#paint0_linear_1018_1587)"/>
<path fill-rule="evenodd" clip-rule="evenodd" d="M114.001 8.4C111.394 8.4 111.066 8.4114 110.042 8.458C109.02 8.5048 108.323 8.6666 107.712 8.90401C107.081 9.14921 106.545 9.47721 106.012 10.011C105.478 10.5446 105.15 11.0802 104.904 11.7114C104.666 12.322 104.504 13.0198 104.458 14.0415C104.412 15.0655 104.4 15.3929 104.4 18.0001C104.4 20.6073 104.412 20.9335 104.458 21.9575C104.505 22.9796 104.667 23.6772 104.904 24.2876C105.149 24.919 105.477 25.4546 106.011 25.9882C106.545 26.5222 107.08 26.851 107.711 27.0962C108.322 27.3336 109.02 27.4954 110.042 27.5422C111.066 27.5888 111.393 27.6002 114 27.6002C116.607 27.6002 116.933 27.5888 117.957 27.5422C118.979 27.4954 119.678 27.3336 120.288 27.0962C120.92 26.851 121.454 26.5222 121.988 25.9882C122.522 25.4546 122.85 24.919 123.096 24.2878C123.332 23.6772 123.494 22.9794 123.542 21.9577C123.588 20.9337 123.6 20.6073 123.6 18.0001C123.6 15.3929 123.588 15.0657 123.542 14.0417C123.494 13.0196 123.332 12.322 123.096 11.7116C122.85 11.0802 122.522 10.5446 121.988 10.011C121.454 9.47701 120.92 9.14901 120.288 8.90401C119.676 8.6666 118.978 8.5048 117.956 8.458C116.932 8.4114 116.606 8.4 113.998 8.4H114.001ZM113.14 10.13C113.395 10.1296 113.681 10.13 114.001 10.13C116.564 10.13 116.868 10.1392 117.88 10.1852C118.816 10.228 119.324 10.3844 119.663 10.5158C120.111 10.6898 120.43 10.8978 120.766 11.2338C121.102 11.5698 121.31 11.8898 121.484 12.3378C121.616 12.6759 121.772 13.1839 121.815 14.1199C121.861 15.1319 121.871 15.4359 121.871 17.9979C121.871 20.5599 121.861 20.8639 121.815 21.8759C121.772 22.812 121.616 23.32 121.484 23.658C121.31 24.106 121.102 24.425 120.766 24.7608C120.43 25.0968 120.111 25.3048 119.663 25.4788C119.325 25.6108 118.816 25.7668 117.88 25.8096C116.868 25.8556 116.564 25.8656 114.001 25.8656C111.438 25.8656 111.134 25.8556 110.122 25.8096C109.186 25.7664 108.678 25.61 108.339 25.4786C107.891 25.3046 107.571 25.0966 107.235 24.7606C106.899 24.4246 106.691 24.1054 106.517 23.6572C106.385 23.3192 106.229 22.8112 106.186 21.8751C106.14 20.8631 106.131 20.5591 106.131 17.9955C106.131 15.4319 106.14 15.1295 106.186 14.1175C106.229 13.1815 106.385 12.6735 106.517 12.335C106.691 11.887 106.899 11.567 107.235 11.231C107.571 10.895 107.891 10.687 108.339 10.5126C108.677 10.3806 109.186 10.2246 110.122 10.1816C111.007 10.1416 111.351 10.1296 113.14 10.1276V10.13ZM119.125 11.724C118.489 11.724 117.973 12.2395 117.973 12.8757C117.973 13.5117 118.489 14.0277 119.125 14.0277C119.761 14.0277 120.277 13.5117 120.277 12.8757C120.277 12.2397 119.761 11.7236 119.125 11.7236V11.724ZM114.001 13.0701C111.278 13.0701 109.071 15.2775 109.071 18.0001C109.071 20.7227 111.278 22.9292 114.001 22.9292C116.723 22.9292 118.93 20.7227 118.93 18.0001C118.93 15.2775 116.723 13.0701 114.001 13.0701H114.001ZM114.001 14.8001C115.768 14.8001 117.201 16.2327 117.201 18.0001C117.201 19.7673 115.768 21.2001 114.001 21.2001C112.234 21.2001 110.801 19.7673 110.801 18.0001C110.801 16.2327 112.234 14.8001 114.001 14.8001Z" fill="white"/>
</g>
<defs>
<linearGradient id="paint0_linear_1018_1587" x1="125.4" y1="3.59985" x2="103.5" y2="32.9999" gradientUnits="userSpaceOnUse">
<stop stop-color="#9454D4"/>
<stop offset="0.520833" stop-color="#E04380"/>
<stop offset="1" stop-color="#F89B4E"/>
</linearGradient>
</defs>
</svg>
